# xmcd CD database file
#
# Track frame offsets:
#	150
#	5378
#	22796
#	45490
#	63520
#	78026
#	92803
#	108216
#	134003
#	162847
#	186564
#	215170
#
# Disc length: 3183 seconds
#
# Revision: 0
# Processed by: cddbd v1.5.1PL2 Copyright (c) Steve Scherf et al.
# Submitted via: CDex 1.51
#
DISCID=990c6d0c
DTITLE=Irencros - Alchemy Of Destruction
DYEAR=2006
DGENRE=Melodic Power Metal
TTITLE0=The Alchemist
TTITLE1=Into The Howlin Tunnel
TTITLE2=1984 Slivers of...
TTITLE3=The King Is Dead
TTITLE4=Blindness
TTITLE5=Hannihilation
TTITLE6=The Seventh Man
TTITLE7=Jester
TTITLE8=The Gosen
TTITLE9=The Show Must Go On
TTITLE10=Soldiers Of Nothing (Demo version 2002)
TTITLE11=Two Thousan Years and a Gate (Demo Version 2002)
EXTD=YEAR: 2006
EXTT0=
EXTT1=
EXTT2=
EXTT3=
EXTT4=
EXTT5=
EXTT6=
EXTT7=
EXTT8=
EXTT9=
EXTT10=
EXTT11=
PLAYORDER=
